<?xml version="1.0" encoding="UTF-8"?>
<!DOCTYPE svg PUBLIC "-//W3C//DTD SVG 1.1//EN" "http://www.w3.org/Graphics/SVG/1.1/DTD/svg11.dtd">
<svg xmlns="http://www.w3.org/2000/svg" xmlns:xlink="http://www.w3.org/1999/xlink" version="1.1" width="241px" height="171px" viewBox="-0.5 -0.5 241 171" style="background-color: rgb(255, 255, 255);"><defs/><g><rect x="180" y="120" width="60" height="50" rx="7.5" ry="7.5" fill="#f8cecc" stroke="#b85450" pointer-events="all"/><rect x="0" y="0" width="80" height="60" rx="9" ry="9" fill="#dae8fc" stroke="#6c8ebf" pointer-events="all"/><rect x="90" y="40" width="80" height="60" rx="9" ry="9" fill="#d5e8d4" stroke="#82b366" pointer-events="all"/><rect x="90" y="110" width="80" height="60" rx="9" ry="9" fill="#e1d5e7" stroke="#9673a6" pointer-events="all"/><rect x="0" y="70" width="80" height="100" rx="12" ry="12" fill="#fff2cc" stroke="#d6b656" pointer-events="all"/><rect x="180" y="0" width="60" height="100" rx="9" ry="9" fill="#b1ddf0" stroke="#10739e" pointer-events="all"/><rect x="190" y="15" width="40" height="30" rx="4.5" ry="4.5" fill="#647687" stroke="#314354" pointer-events="all"/><rect x="190" y="55" width="40" height="30" rx="4.5" ry="4.5" fill="#647687" stroke="#314354" pointer-events="all"/><rect x="90" y="0" width="80" height="30" rx="4.5" ry="4.5" fill="#ffe6cc" stroke="#d79b00" pointer-events="all"/><rect x="190" y="130" width="40" height="10" rx="1.5" ry="1.5" fill="#e51400" stroke="#b20000" pointer-events="all"/><rect x="190" y="150" width="40" height="10" rx="1.5" ry="1.5" fill="#fa6800" stroke="#c73500" pointer-events="all"/></g></svg>