<?xml version="1.0" encoding="UTF-8"?>
<!DOCTYPE svg PUBLIC "-//W3C//DTD SVG 1.1//EN" "http://www.w3.org/Graphics/SVG/1.1/DTD/svg11.dtd">
<svg xmlns="http://www.w3.org/2000/svg" xmlns:xlink="http://www.w3.org/1999/xlink" version="1.1" width="425px" height="356px" viewBox="-0.5 -0.5 425 356" style="background-color: rgb(255, 255, 255);"><defs/><g><ellipse cx="191" cy="261" rx="90" ry="90" fill="#000000" stroke="#000000" stroke-width="3" pointer-events="all" transform="translate(2,3)" opacity="0.25"/><ellipse cx="191" cy="261" rx="90" ry="90" fill="#dae8fc" stroke="#6c8ebf" stroke-width="3" pointer-events="all"/><rect x="151" y="286" width="30" height="30" rx="4.5" ry="4.5" fill="#000000" stroke="#000000" pointer-events="all" transform="translate(2,3)" opacity="0.25"/><rect x="151" y="286" width="30" height="30" rx="4.5" ry="4.5" fill="#647687" stroke="#314354" pointer-events="all"/><rect x="201" y="221" width="30" height="30" rx="4.5" ry="4.5" fill="#000000" stroke="#000000" pointer-events="all" transform="translate(2,3)" opacity="0.25"/><rect x="201" y="221" width="30" height="30" rx="4.5" ry="4.5" fill="#647687" stroke="#314354" pointer-events="all"/><ellipse cx="151" cy="241" rx="20" ry="20" fill="#000000" stroke="#000000" pointer-events="all" transform="translate(2,3)" opacity="0.25"/><ellipse cx="151" cy="241" rx="20" ry="20" fill="#647687" stroke="#314354" pointer-events="all"/><path d="M 201 271 L 241 291 L 201 311 Z" fill="#000000" stroke="#000000" stroke-miterlimit="10" pointer-events="all" transform="translate(2,3)" opacity="0.25"/><path d="M 201 271 L 241 291 L 201 311 Z" fill="#647687" stroke="#314354" stroke-miterlimit="10" pointer-events="all"/><ellipse cx="331" cy="121" rx="90" ry="90" fill="#000000" stroke="#000000" stroke-width="3" pointer-events="all" transform="translate(2,3)" opacity="0.25"/><ellipse cx="331" cy="121" rx="90" ry="90" fill="#f8cecc" stroke="#b85450" stroke-width="3" pointer-events="all"/><rect x="356" y="61" width="30" height="30" rx="4.5" ry="4.5" fill="#000000" stroke="#000000" pointer-events="all" transform="translate(2,3)" opacity="0.25"/><rect x="356" y="61" width="30" height="30" rx="4.5" ry="4.5" fill="#e51400" stroke="#b20000" pointer-events="all"/><rect x="271" y="106" width="30" height="30" rx="4.5" ry="4.5" fill="#000000" stroke="#000000" pointer-events="all" transform="translate(2,3)" opacity="0.25"/><rect x="271" y="106" width="30" height="30" rx="4.5" ry="4.5" fill="#e51400" stroke="#b20000" pointer-events="all"/><ellipse cx="311" cy="81" rx="20" ry="20" fill="#000000" stroke="#000000" pointer-events="all" transform="translate(2,3)" opacity="0.25"/><ellipse cx="311" cy="81" rx="20" ry="20" fill="#e51400" stroke="#b20000" pointer-events="all"/><path d="M 356 111 L 396 131 L 356 151 Z" fill="#000000" stroke="#000000" stroke-miterlimit="10" pointer-events="all" transform="translate(2,3)" opacity="0.25"/><path d="M 356 111 L 396 131 L 356 151 Z" fill="#e51400" stroke="#b20000" stroke-miterlimit="10" pointer-events="all"/><path d="M 311 151 L 351 171 L 311 191 Z" fill="#000000" stroke="#000000" stroke-miterlimit="10" pointer-events="all" transform="translate(2,3)" opacity="0.25"/><path d="M 311 151 L 351 171 L 311 191 Z" fill="#e51400" stroke="#b20000" stroke-miterlimit="10" pointer-events="all"/><path d="M 179.78 76.2 L 201.14 72.64 Q 211 71 220.23 74.85 L 238.6 82.5" fill="none" stroke="rgb(0, 0, 0)" stroke-width="3" stroke-miterlimit="10" pointer-events="stroke"/><path d="M 244.83 85.09 L 234.79 85.79 L 238.6 82.5 L 238.25 77.48 Z" fill="rgb(0, 0, 0)" stroke="rgb(0, 0, 0)" stroke-width="3" stroke-miterlimit="10" pointer-events="all"/><ellipse cx="91" cy="91" rx="90" ry="90" fill="#000000" stroke="#000000" stroke-width="3" pointer-events="all" transform="translate(2,3)" opacity="0.25"/><ellipse cx="91" cy="91" rx="90" ry="90" fill="#d5e8d4" stroke="#82b366" stroke-width="3" pointer-events="all"/><rect x="101" y="51" width="30" height="30" rx="4.5" ry="4.5" fill="#000000" stroke="#000000" pointer-events="all" transform="translate(2,3)" opacity="0.25"/><rect x="101" y="51" width="30" height="30" rx="4.5" ry="4.5" fill="#6d8764" stroke="#3a5431" pointer-events="all"/><ellipse cx="71" cy="51" rx="20" ry="20" fill="#000000" stroke="#000000" pointer-events="all" transform="translate(2,3)" opacity="0.25"/><ellipse cx="71" cy="51" rx="20" ry="20" fill="#6d8764" stroke="#3a5431" pointer-events="all"/><path d="M 31 81 L 71 101 L 31 121 Z" fill="#000000" stroke="#000000" stroke-miterlimit="10" pointer-events="all" transform="translate(2,3)" opacity="0.25"/><path d="M 31 81 L 71 101 L 31 121 Z" fill="#6d8764" stroke="#3a5431" stroke-miterlimit="10" pointer-events="all"/><path d="M 71 121 L 111 141 L 71 161 Z" fill="#000000" stroke="#000000" stroke-miterlimit="10" pointer-events="all" transform="translate(2,3)" opacity="0.25"/><path d="M 71 121 L 111 141 L 71 161 Z" fill="#6d8764" stroke="#3a5431" stroke-miterlimit="10" pointer-events="all"/><ellipse cx="141" cy="101" rx="20" ry="20" fill="#000000" stroke="#000000" pointer-events="all" transform="translate(2,3)" opacity="0.25"/><ellipse cx="141" cy="101" rx="20" ry="20" fill="#6d8764" stroke="#3a5431" pointer-events="all"/><ellipse cx="224" cy="21" rx="20" ry="20" fill="#000000" stroke="#000000" pointer-events="all" transform="translate(2,3)" opacity="0.25"/><ellipse cx="224" cy="21" rx="20" ry="20" fill="#fa6800" stroke="#c73500" pointer-events="all"/><path d="M 321 251 L 361 271 L 321 291 Z" fill="#000000" stroke="#000000" stroke-miterlimit="10" pointer-events="all" transform="translate(2,3)" opacity="0.25"/><path d="M 321 251 L 361 271 L 321 291 Z" fill="#76608a" stroke="#432d57" stroke-miterlimit="10" pointer-events="all"/><rect x="31" y="211" width="30" height="30" rx="4.5" ry="4.5" fill="#000000" stroke="#000000" pointer-events="all" transform="translate(2,3)" opacity="0.25"/><rect x="31" y="211" width="30" height="30" rx="4.5" ry="4.5" fill="#e3c800" stroke="#b09500" pointer-events="all"/><path d="M 244.96 151.96 L 210.8 158.99 Q 201 161 192.4 155.89 L 177.63 147.1" fill="none" stroke="rgb(0, 0, 0)" stroke-width="3" stroke-miterlimit="10" pointer-events="stroke"/><path d="M 171.82 143.65 L 181.86 144.39 L 177.63 147.1 L 177.26 152.12 Z" fill="rgb(0, 0, 0)" stroke="rgb(0, 0, 0)" stroke-width="3" stroke-miterlimit="10" pointer-events="all"/><path d="M 261.92 316.98 Q 481 311 400.34 192.98" fill="none" stroke="rgb(0, 0, 0)" stroke-width="3" stroke-miterlimit="10" pointer-events="stroke"/><path d="M 396.53 187.41 L 405.33 192.3 L 400.34 192.98 L 397.9 197.38 Z" fill="rgb(0, 0, 0)" stroke="rgb(0, 0, 0)" stroke-width="3" stroke-miterlimit="10" pointer-events="all"/></g></svg>