<?xml version="1.0" encoding="UTF-8"?>
<!DOCTYPE svg PUBLIC "-//W3C//DTD SVG 1.1//EN" "http://www.w3.org/Graphics/SVG/1.1/DTD/svg11.dtd">
<svg xmlns="http://www.w3.org/2000/svg" xmlns:xlink="http://www.w3.org/1999/xlink" version="1.1" width="221px" height="161px" viewBox="-0.5 -0.5 221 161" style="background-color: rgb(255, 255, 255);"><defs/><g><rect x="160" y="110" width="60" height="50" rx="7.5" ry="7.5" fill="#f5f5f5" stroke="#666666" pointer-events="all"/><rect x="0" y="0" width="80" height="60" rx="9" ry="9" fill="#f5f5f5" stroke="#666666" pointer-events="all"/><rect x="80" y="40" width="80" height="60" rx="9" ry="9" fill="#f5f5f5" stroke="#666666" pointer-events="all"/><rect x="80" y="100" width="80" height="60" rx="9" ry="9" fill="#f5f5f5" stroke="#666666" pointer-events="all"/><rect x="0" y="60" width="80" height="100" rx="12" ry="12" fill="#f5f5f5" stroke="#666666" pointer-events="all"/><rect x="160" y="10" width="60" height="100" rx="9" ry="9" fill="#f5f5f5" stroke="#666666" pointer-events="all"/><rect x="170" y="25" width="40" height="30" rx="4.5" ry="4.5" fill="#f5f5f5" stroke="#666666" pointer-events="all"/><rect x="170" y="65" width="40" height="30" rx="4.5" ry="4.5" fill="#f5f5f5" stroke="#666666" pointer-events="all"/><rect x="80" y="10" width="80" height="30" rx="4.5" ry="4.5" fill="#f5f5f5" stroke="#666666" pointer-events="all"/><rect x="170" y="120" width="40" height="10" rx="1.5" ry="1.5" fill="#f5f5f5" stroke="#666666" pointer-events="all"/><rect x="170" y="140" width="40" height="10" rx="1.5" ry="1.5" fill="#f5f5f5" stroke="#666666" pointer-events="all"/></g></svg>