<?xml version="1.0" ?>
<!DOCTYPE svg
  PUBLIC '-//W3C//DTD SVG 1.1//EN'
  'http://www.w3.org/Graphics/SVG/1.1/DTD/svg11.dtd'>
  <svg height="161px" style="background-color: rgb(255, 255, 255);" version="1.1" viewBox="-0.5 -0.5 687 161" width="687px" xmlns="http://www.w3.org/2000/svg" xmlns:xlink="http://www.w3.org/1999/xlink">
   <defs/>
   <g>
    <rect fill="#b1ddf0" fill-opacity="0.5" height="160" pointer-events="none" rx="24" ry="24" stroke="#10739e" stroke-opacity="0.5" width="160" x="266" y="0"/>
    <rect fill="#ffffff" fill-opacity="0.8" height="120" pointer-events="none" rx="18" ry="18" stroke="#000000" stroke-opacity="0.8" width="120" x="286" y="20"/>
    <rect fill="#bac8d3" fill-opacity="0.5" height="160" pointer-events="none" rx="24" ry="24" stroke="#23445d" stroke-opacity="0.5" width="160" x="526" y="0"/>
    <rect fill="#ffffff" fill-opacity="0.8" height="120" pointer-events="none" rx="18" ry="18" stroke="#000000" stroke-opacity="0.8" width="120" x="546" y="20"/>
    <rect fill="#b0e3e6" fill-opacity="0.5" height="160" pointer-events="none" rx="24" ry="24" stroke="#0e8088" stroke-opacity="0.5" width="160" x="1" y="0"/>
    <rect fill="#ffffff" fill-opacity="0.8" height="120" pointer-events="none" rx="18" ry="18" stroke="#000000" stroke-opacity="0.8" width="120" x="21" y="20"/>
    <rect fill="#bac8d3" fill-opacity="0.5" height="50" pointer-events="none" stroke="#23445d" stroke-opacity="0.5" stroke-width="2" width="10" x="416" y="20"/>
    <rect fill="#bac8d3" fill-opacity="0.5" height="50" pointer-events="none" stroke="#23445d" stroke-opacity="0.5" stroke-width="2" width="10" x="416" y="90"/>
    <rect fill="#bac8d3" fill-opacity="0.5" height="50" pointer-events="none" stroke="#23445d" stroke-opacity="0.5" stroke-width="2" width="10" x="266" y="20"/>
    <rect fill="#bac8d3" fill-opacity="0.5" height="50" pointer-events="none" stroke="#23445d" stroke-opacity="0.5" stroke-width="2" width="10" x="266" y="90"/>
    <rect fill="#bac8d3" fill-opacity="0.5" height="50" pointer-events="none" stroke="#23445d" stroke-opacity="0.5" stroke-width="2" width="10" x="676" y="90"/>
    <rect fill="#bac8d3" fill-opacity="0.5" height="50" pointer-events="none" stroke="#23445d" stroke-opacity="0.5" stroke-width="2" width="10" x="526" y="20"/>
    <rect fill="#bac8d3" fill-opacity="0.5" height="50" pointer-events="none" stroke="#23445d" stroke-opacity="0.5" stroke-width="2" width="10" x="526" y="90"/>
    <rect fill="#bac8d3" fill-opacity="0.5" height="50" pointer-events="none" stroke="#23445d" stroke-opacity="0.5" stroke-width="2" width="10" x="1" y="90"/>
    <rect fill="#bac8d3" fill-opacity="0.5" height="50" pointer-events="none" stroke="#23445d" stroke-opacity="0.5" stroke-width="2" width="10" x="1" y="20"/>
    <rect fill="#bac8d3" fill-opacity="0.5" height="50" pointer-events="none" stroke="#23445d" stroke-opacity="0.5" stroke-width="2" width="10" x="151" y="20"/>
    <rect fill="#bac8d3" fill-opacity="0.5" height="50" pointer-events="none" stroke="#23445d" stroke-opacity="0.5" stroke-width="2" width="10" x="151" y="90"/>
    <rect fill="#bac8d3" fill-opacity="0.5" height="50" pointer-events="none" stroke="#23445d" stroke-opacity="0.5" stroke-width="2" width="10" x="676" y="20"/>
    <path d="M 71 50 L 84.13 50" fill="none" pointer-events="none" stroke="#423a2f" stroke-miterlimit="10"/>
    <path d="M 89.38 50 L 82.38 53.5 L 84.13 50 L 82.38 46.5 Z" fill="#423a2f" pointer-events="none" stroke="#423a2f" stroke-miterlimit="10"/>
    <path d="M 41 40 L 46 35 Q 51 30 58.07 37.07 L 64.54 43.54 Q 71 50 63.93 57.07 L 57.46 63.54 Q 51 70 43.93 62.93 L 37.46 56.46 Q 31 50 36 45 Z" fill="#647687" fill-opacity="0.5" pointer-events="none" stroke="#314354" stroke-miterlimit="10" stroke-opacity="0.5"/>
    <path d="M 91.5 110 L 78.37 110" fill="none" pointer-events="none" stroke="#423a2f" stroke-miterlimit="10"/>
    <path d="M 73.12 110 L 80.12 106.5 L 78.37 110 L 80.12 113.5 Z" fill="#423a2f" pointer-events="none" stroke="#423a2f" stroke-miterlimit="10"/>
    <path d="M 109.68 91.82 L 107.63 71.34" fill="none" pointer-events="none" stroke="#000000" stroke-miterlimit="10"/>
    <path d="M 107.11 66.11 L 111.29 72.73 L 107.63 71.34 L 104.33 73.43 Z" fill="#000000" pointer-events="none" stroke="#000000" stroke-miterlimit="10"/>
    <path d="M 51.67 90.33 L 51.43 76.04" fill="none" pointer-events="none" stroke="#423a2f" stroke-miterlimit="10"/>
    <path d="M 51.35 70.79 L 54.96 77.73 L 51.43 76.04 L 47.96 77.85 Z" fill="#423a2f" pointer-events="none" stroke="#423a2f" stroke-miterlimit="10"/>
    <path d="M 42 100 L 47 95 Q 52 90 59.07 97.07 L 65.54 103.54 Q 72 110 64.93 117.07 L 58.46 123.54 Q 52 130 44.93 122.93 L 38.46 116.46 Q 32 110 37 105 Z" fill="#76608a" fill-opacity="0.5" pointer-events="none" stroke="#432d57" stroke-miterlimit="10" stroke-opacity="0.5"/>
    <path d="M 96.59 61.26 L 66.24 95.25" fill="none" pointer-events="none" stroke="#423a2f" stroke-miterlimit="10"/>
    <path d="M 62.74 99.17 L 64.8 91.61 L 66.24 95.25 L 70.02 96.28 Z" fill="#423a2f" pointer-events="none" stroke="#423a2f" stroke-miterlimit="10"/>
    <ellipse cx="107" cy="50" fill="#e51400" fill-opacity="0.5" pointer-events="none" rx="15" ry="15" stroke="#b20000" stroke-opacity="0.5"/>
    <path d="M 101.5 100 L 106.5 95 Q 111.5 90 118.57 97.07 L 125.04 103.54 Q 131.5 110 124.43 117.07 L 117.96 123.54 Q 111.5 130 104.43 122.93 L 97.96 116.46 Q 91.5 110 96.5 105 Z" fill="#6d8764" fill-opacity="0.5" pointer-events="none" stroke="#3a5431" stroke-miterlimit="10" stroke-opacity="0.5"/>
    <path d="M 336 50 L 349.13 50" fill="none" pointer-events="none" stroke="#423a2f" stroke-miterlimit="10"/>
    <path d="M 354.38 50 L 347.38 53.5 L 349.13 50 L 347.38 46.5 Z" fill="#423a2f" pointer-events="none" stroke="#423a2f" stroke-miterlimit="10"/>
    <path d="M 306 40 L 311 35 Q 316 30 323.07 37.07 L 329.54 43.54 Q 336 50 328.93 57.07 L 322.46 63.54 Q 316 70 308.93 62.93 L 302.46 56.46 Q 296 50 301 45 Z" fill="#a0522d" fill-opacity="0.5" pointer-events="none" stroke="#6d1f00" stroke-miterlimit="10" stroke-opacity="0.5"/>
    <path d="M 375.83 69.67 L 376.07 83.96" fill="none" pointer-events="none" stroke="#423a2f" stroke-miterlimit="10"/>
    <path d="M 376.15 89.21 L 372.54 82.27 L 376.07 83.96 L 379.54 82.15 Z" fill="#423a2f" pointer-events="none" stroke="#423a2f" stroke-miterlimit="10"/>
    <path d="M 365.5 40 L 370.5 35 Q 375.5 30 382.57 37.07 L 389.04 43.54 Q 395.5 50 388.43 57.07 L 381.96 63.54 Q 375.5 70 368.43 62.93 L 361.96 56.46 Q 355.5 50 360.5 45 Z" fill="#a0522d" fill-opacity="0.5" pointer-events="none" stroke="#6d1f00" stroke-miterlimit="10" stroke-opacity="0.5"/>
    <path d="M 356.5 110 L 343.37 110" fill="none" pointer-events="none" stroke="#423a2f" stroke-miterlimit="10"/>
    <path d="M 338.12 110 L 345.12 106.5 L 343.37 110 L 345.12 113.5 Z" fill="#423a2f" pointer-events="none" stroke="#423a2f" stroke-miterlimit="10"/>
    <path d="M 366.5 100 L 371.5 95 Q 376.5 90 383.57 97.07 L 390.04 103.54 Q 396.5 110 389.43 117.07 L 382.96 123.54 Q 376.5 130 369.43 122.93 L 362.96 116.46 Q 356.5 110 361.5 105 Z" fill="#a0522d" fill-opacity="0.5" pointer-events="none" stroke="#6d1f00" stroke-miterlimit="10" stroke-opacity="0.5"/>
    <path d="M 316.67 90.33 L 316.43 76.04" fill="none" pointer-events="none" stroke="#423a2f" stroke-miterlimit="10"/>
    <path d="M 316.35 70.79 L 319.96 77.73 L 316.43 76.04 L 312.96 77.85 Z" fill="#423a2f" pointer-events="none" stroke="#423a2f" stroke-miterlimit="10"/>
    <path d="M 307 100 L 312 95 Q 317 90 324.07 97.07 L 330.54 103.54 Q 337 110 329.93 117.07 L 323.46 123.54 Q 317 130 309.93 122.93 L 303.46 116.46 Q 297 110 302 105 Z" fill="#a0522d" fill-opacity="0.5" pointer-events="none" stroke="#6d1f00" stroke-miterlimit="10" stroke-opacity="0.5"/>
    <path d="M 356.87 68.67 L 361.38 64.39" fill="none" pointer-events="none" stroke="#423a2f" stroke-miterlimit="10"/>
    <path d="M 365.19 60.77 L 362.53 68.13 L 361.38 64.39 L 357.7 63.05 Z" fill="#423a2f" pointer-events="none" stroke="#423a2f" stroke-miterlimit="10"/>
    <path d="M 335.94 90.12 L 331.27 95.28" fill="none" pointer-events="none" stroke="#423a2f" stroke-miterlimit="10"/>
    <path d="M 327.75 99.17 L 329.85 91.63 L 331.27 95.28 L 335.04 96.33 Z" fill="#423a2f" pointer-events="none" stroke="#423a2f" stroke-miterlimit="10"/>
    <ellipse cx="346" cy="79" fill="#e51400" fill-opacity="0.5" pointer-events="none" rx="15" ry="15" stroke="#b20000" stroke-opacity="0.5"/>
    <path d="M 578.5 60 Q 578.5 60 627.13 60" fill="none" pointer-events="none" stroke="#423a2f" stroke-miterlimit="10"/>
    <path d="M 632.38 60 L 625.38 63.5 L 627.13 60 L 625.38 56.5 Z" fill="#423a2f" pointer-events="none" stroke="#423a2f" stroke-miterlimit="10"/>
    <ellipse cx="564" cy="60" fill="#f0a30a" fill-opacity="0.5" pointer-events="none" rx="15" ry="15" stroke="#bd7000" stroke-opacity="0.5"/>
    <path d="M 637.89 70.61 L 623.61 84.89" fill="none" pointer-events="none" stroke="#423a2f" stroke-miterlimit="10"/>
    <path d="M 619.9 88.6 L 622.37 81.18 L 623.61 84.89 L 627.32 86.13 Z" fill="#423a2f" pointer-events="none" stroke="#423a2f" stroke-miterlimit="10"/>
    <ellipse cx="649" cy="60" fill="#fa6800" fill-opacity="0.5" pointer-events="none" rx="15" ry="15" stroke="#c73500" stroke-opacity="0.5"/>
    <path d="M 597.09 90.27 L 578.89 75.08" fill="none" pointer-events="none" stroke="#423a2f" stroke-miterlimit="10"/>
    <path d="M 574.86 71.72 L 582.48 73.51 L 578.89 75.08 L 577.99 78.89 Z" fill="#423a2f" pointer-events="none" stroke="#423a2f" stroke-miterlimit="10"/>
    <ellipse cx="609" cy="100" fill="#e51400" fill-opacity="0.5" pointer-events="none" rx="15" ry="15" stroke="#b20000" stroke-opacity="0.5"/>
    <path d="M 593.82 103.06 L 545.9 112.96" fill="none" pointer-events="none" stroke="#3333ff" stroke-miterlimit="10" stroke-width="3"/>
    <path d="M 539.28 114.32 L 547.19 108.09 L 545.9 112.96 L 549.01 116.91 Z" fill="#3333ff" pointer-events="none" stroke="#3333ff" stroke-miterlimit="10" stroke-width="3"/>
    <path d="M 426 107.2 L 486 107.2 L 486 100 L 526 112 L 486 124 L 486 116.8 L 426 116.8 L 426 112 Z" fill="#1ba1e2" fill-opacity="0.5" pointer-events="none" stroke="#006eaf" stroke-miterlimit="10" stroke-opacity="0.5" transform="translate(476,0)scale(-1,1)translate(-476,0)"/>
   </g>
  </svg>
