<?xml version="1.0" ?>
<!DOCTYPE svg
  PUBLIC '-//W3C//DTD SVG 1.1//EN'
  'http://www.w3.org/Graphics/SVG/1.1/DTD/svg11.dtd'>
  <svg height="161px" style="background-color: rgb(255, 255, 255);" version="1.1" viewBox="-0.5 -0.5 686 161" width="686px" xmlns="http://www.w3.org/2000/svg" xmlns:xlink="http://www.w3.org/1999/xlink">
   <defs/>
   <g>
    <rect fill="#b1ddf0" fill-opacity="0.5" height="160" pointer-events="none" rx="24" ry="24" stroke="#10739e" stroke-opacity="0.5" width="160" x="265" y="0"/>
    <rect fill="#ffffff" fill-opacity="0.8" height="120" pointer-events="none" rx="18" ry="18" stroke="#000000" stroke-opacity="0.8" width="120" x="285" y="20"/>
    <rect fill="#bac8d3" fill-opacity="0.5" height="160" pointer-events="none" rx="24" ry="24" stroke="#23445d" stroke-opacity="0.5" width="160" x="525" y="0"/>
    <rect fill="#ffffff" fill-opacity="0.8" height="120" pointer-events="none" rx="18" ry="18" stroke="#000000" stroke-opacity="0.8" width="120" x="545" y="20"/>
    <rect fill="#b0e3e6" fill-opacity="0.5" height="160" pointer-events="none" rx="24" ry="24" stroke="#0e8088" stroke-opacity="0.5" width="160" x="0" y="0"/>
    <rect fill="#ffffff" fill-opacity="0.8" height="120" pointer-events="none" rx="18" ry="18" stroke="#000000" stroke-opacity="0.8" width="120" x="20" y="20"/>
    <path d="M 70 50 L 83.13 50" fill="none" pointer-events="none" stroke="#423a2f" stroke-miterlimit="10"/>
    <path d="M 88.38 50 L 81.38 53.5 L 83.13 50 L 81.38 46.5 Z" fill="#423a2f" pointer-events="none" stroke="#423a2f" stroke-miterlimit="10"/>
    <path d="M 40 40 L 45 35 Q 50 30 57.07 37.07 L 63.54 43.54 Q 70 50 62.93 57.07 L 56.46 63.54 Q 50 70 42.93 62.93 L 36.46 56.46 Q 30 50 35 45 Z" fill="#647687" fill-opacity="0.5" pointer-events="none" stroke="#314354" stroke-miterlimit="10" stroke-opacity="0.5"/>
    <path d="M 90.5 110 L 77.37 110" fill="none" pointer-events="none" stroke="#423a2f" stroke-miterlimit="10"/>
    <path d="M 72.12 110 L 79.12 106.5 L 77.37 110 L 79.12 113.5 Z" fill="#423a2f" pointer-events="none" stroke="#423a2f" stroke-miterlimit="10"/>
    <path d="M 108.68 91.82 L 106.63 71.34" fill="none" pointer-events="none" stroke="#000000" stroke-miterlimit="10"/>
    <path d="M 106.11 66.11 L 110.29 72.73 L 106.63 71.34 L 103.33 73.43 Z" fill="#000000" pointer-events="none" stroke="#000000" stroke-miterlimit="10"/>
    <path d="M 50.67 90.33 L 50.43 76.04" fill="none" pointer-events="none" stroke="#423a2f" stroke-miterlimit="10"/>
    <path d="M 50.35 70.79 L 53.96 77.73 L 50.43 76.04 L 46.96 77.85 Z" fill="#423a2f" pointer-events="none" stroke="#423a2f" stroke-miterlimit="10"/>
    <path d="M 41 100 L 46 95 Q 51 90 58.07 97.07 L 64.54 103.54 Q 71 110 63.93 117.07 L 57.46 123.54 Q 51 130 43.93 122.93 L 37.46 116.46 Q 31 110 36 105 Z" fill="#76608a" fill-opacity="0.5" pointer-events="none" stroke="#432d57" stroke-miterlimit="10" stroke-opacity="0.5"/>
    <path d="M 95.59 61.26 L 65.24 95.25" fill="none" pointer-events="none" stroke="#423a2f" stroke-miterlimit="10"/>
    <path d="M 61.74 99.17 L 63.8 91.61 L 65.24 95.25 L 69.02 96.28 Z" fill="#423a2f" pointer-events="none" stroke="#423a2f" stroke-miterlimit="10"/>
    <ellipse cx="106" cy="50" fill="#e51400" fill-opacity="0.5" pointer-events="none" rx="15" ry="15" stroke="#b20000" stroke-opacity="0.5"/>
    <path d="M 100.5 100 L 105.5 95 Q 110.5 90 117.57 97.07 L 124.04 103.54 Q 130.5 110 123.43 117.07 L 116.96 123.54 Q 110.5 130 103.43 122.93 L 96.96 116.46 Q 90.5 110 95.5 105 Z" fill="#6d8764" fill-opacity="0.5" pointer-events="none" stroke="#3a5431" stroke-miterlimit="10" stroke-opacity="0.5"/>
    <path d="M 335 50 L 348.13 50" fill="none" pointer-events="none" stroke="#423a2f" stroke-miterlimit="10"/>
    <path d="M 353.38 50 L 346.38 53.5 L 348.13 50 L 346.38 46.5 Z" fill="#423a2f" pointer-events="none" stroke="#423a2f" stroke-miterlimit="10"/>
    <path d="M 305 40 L 310 35 Q 315 30 322.07 37.07 L 328.54 43.54 Q 335 50 327.93 57.07 L 321.46 63.54 Q 315 70 307.93 62.93 L 301.46 56.46 Q 295 50 300 45 Z" fill="#a0522d" fill-opacity="0.5" pointer-events="none" stroke="#6d1f00" stroke-miterlimit="10" stroke-opacity="0.5"/>
    <path d="M 374.83 69.67 L 375.07 83.96" fill="none" pointer-events="none" stroke="#423a2f" stroke-miterlimit="10"/>
    <path d="M 375.15 89.21 L 371.54 82.27 L 375.07 83.96 L 378.54 82.15 Z" fill="#423a2f" pointer-events="none" stroke="#423a2f" stroke-miterlimit="10"/>
    <path d="M 364.5 40 L 369.5 35 Q 374.5 30 381.57 37.07 L 388.04 43.54 Q 394.5 50 387.43 57.07 L 380.96 63.54 Q 374.5 70 367.43 62.93 L 360.96 56.46 Q 354.5 50 359.5 45 Z" fill="#a0522d" fill-opacity="0.5" pointer-events="none" stroke="#6d1f00" stroke-miterlimit="10" stroke-opacity="0.5"/>
    <path d="M 355.5 110 L 342.37 110" fill="none" pointer-events="none" stroke="#423a2f" stroke-miterlimit="10"/>
    <path d="M 337.12 110 L 344.12 106.5 L 342.37 110 L 344.12 113.5 Z" fill="#423a2f" pointer-events="none" stroke="#423a2f" stroke-miterlimit="10"/>
    <path d="M 365.5 100 L 370.5 95 Q 375.5 90 382.57 97.07 L 389.04 103.54 Q 395.5 110 388.43 117.07 L 381.96 123.54 Q 375.5 130 368.43 122.93 L 361.96 116.46 Q 355.5 110 360.5 105 Z" fill="#a0522d" fill-opacity="0.5" pointer-events="none" stroke="#6d1f00" stroke-miterlimit="10" stroke-opacity="0.5"/>
    <path d="M 315.67 90.33 L 315.43 76.04" fill="none" pointer-events="none" stroke="#423a2f" stroke-miterlimit="10"/>
    <path d="M 315.35 70.79 L 318.96 77.73 L 315.43 76.04 L 311.96 77.85 Z" fill="#423a2f" pointer-events="none" stroke="#423a2f" stroke-miterlimit="10"/>
    <path d="M 306 100 L 311 95 Q 316 90 323.07 97.07 L 329.54 103.54 Q 336 110 328.93 117.07 L 322.46 123.54 Q 316 130 308.93 122.93 L 302.46 116.46 Q 296 110 301 105 Z" fill="#a0522d" fill-opacity="0.5" pointer-events="none" stroke="#6d1f00" stroke-miterlimit="10" stroke-opacity="0.5"/>
    <path d="M 355.87 68.67 L 360.38 64.39" fill="none" pointer-events="none" stroke="#423a2f" stroke-miterlimit="10"/>
    <path d="M 364.19 60.77 L 361.53 68.13 L 360.38 64.39 L 356.7 63.05 Z" fill="#423a2f" pointer-events="none" stroke="#423a2f" stroke-miterlimit="10"/>
    <path d="M 334.94 90.12 L 330.27 95.28" fill="none" pointer-events="none" stroke="#423a2f" stroke-miterlimit="10"/>
    <path d="M 326.75 99.17 L 328.85 91.63 L 330.27 95.28 L 334.04 96.33 Z" fill="#423a2f" pointer-events="none" stroke="#423a2f" stroke-miterlimit="10"/>
    <ellipse cx="345" cy="79" fill="#e51400" fill-opacity="0.5" pointer-events="none" rx="15" ry="15" stroke="#b20000" stroke-opacity="0.5"/>
    <path d="M 577.5 60 Q 577.5 60 626.13 60" fill="none" pointer-events="none" stroke="#423a2f" stroke-miterlimit="10"/>
    <path d="M 631.38 60 L 624.38 63.5 L 626.13 60 L 624.38 56.5 Z" fill="#423a2f" pointer-events="none" stroke="#423a2f" stroke-miterlimit="10"/>
    <ellipse cx="563" cy="60" fill="#f0a30a" fill-opacity="0.5" pointer-events="none" rx="15" ry="15" stroke="#bd7000" stroke-opacity="0.5"/>
    <path d="M 636.89 70.61 L 622.61 84.89" fill="none" pointer-events="none" stroke="#423a2f" stroke-miterlimit="10"/>
    <path d="M 618.9 88.6 L 621.37 81.18 L 622.61 84.89 L 626.32 86.13 Z" fill="#423a2f" pointer-events="none" stroke="#423a2f" stroke-miterlimit="10"/>
    <ellipse cx="648" cy="60" fill="#fa6800" fill-opacity="0.5" pointer-events="none" rx="15" ry="15" stroke="#c73500" stroke-opacity="0.5"/>
    <path d="M 596.09 90.27 L 577.89 75.08" fill="none" pointer-events="none" stroke="#423a2f" stroke-miterlimit="10"/>
    <path d="M 573.86 71.72 L 581.48 73.51 L 577.89 75.08 L 576.99 78.89 Z" fill="#423a2f" pointer-events="none" stroke="#423a2f" stroke-miterlimit="10"/>
    <ellipse cx="608" cy="100" fill="#e51400" fill-opacity="0.5" pointer-events="none" rx="15" ry="15" stroke="#b20000" stroke-opacity="0.5"/>
   </g>
  </svg>
