<?xml version="1.0" ?>
<!DOCTYPE svg
  PUBLIC '-//W3C//DTD SVG 1.1//EN'
  'http://www.w3.org/Graphics/SVG/1.1/DTD/svg11.dtd'>
  <svg height="161px" style="background-color: rgb(255, 255, 255);" version="1.1" viewBox="-0.5 -0.5 687 161" width="687px" xmlns="http://www.w3.org/2000/svg" xmlns:xlink="http://www.w3.org/1999/xlink">
   <defs/>
   <g>
    <rect fill="#b1ddf0" fill-opacity="0.5" height="160" pointer-events="none" rx="24" ry="24" stroke="#10739e" stroke-opacity="0.5" width="160" x="266" y="0"/>
    <rect fill="#ffffff" fill-opacity="0.8" height="120" pointer-events="none" rx="18" ry="18" stroke="#000000" stroke-opacity="0.8" width="120" x="286" y="20"/>
    <rect fill="#bac8d3" fill-opacity="0.5" height="160" pointer-events="none" rx="24" ry="24" stroke="#23445d" stroke-opacity="0.5" width="160" x="526" y="0"/>
    <rect fill="#ffffff" fill-opacity="0.8" height="120" pointer-events="none" rx="18" ry="18" stroke="#000000" stroke-opacity="0.8" width="120" x="546" y="20"/>
    <rect fill="#b0e3e6" fill-opacity="0.5" height="160" pointer-events="none" rx="24" ry="24" stroke="#0e8088" stroke-opacity="0.5" width="160" x="1" y="0"/>
    <rect fill="#ffffff" fill-opacity="0.8" height="120" pointer-events="none" rx="18" ry="18" stroke="#000000" stroke-opacity="0.8" width="120" x="21" y="20"/>
    <rect fill="#bac8d3" fill-opacity="0.5" height="50" pointer-events="none" stroke="#23445d" stroke-opacity="0.5" stroke-width="2" width="10" x="416" y="20"/>
    <rect fill="#bac8d3" fill-opacity="0.5" height="50" pointer-events="none" stroke="#23445d" stroke-opacity="0.5" stroke-width="2" width="10" x="416" y="90"/>
    <rect fill="#bac8d3" fill-opacity="0.5" height="50" pointer-events="none" stroke="#23445d" stroke-opacity="0.5" stroke-width="2" width="10" x="266" y="20"/>
    <rect fill="#bac8d3" fill-opacity="0.5" height="50" pointer-events="none" stroke="#23445d" stroke-opacity="0.5" stroke-width="2" width="10" x="266" y="90"/>
    <rect fill="#bac8d3" fill-opacity="0.5" height="50" pointer-events="none" stroke="#23445d" stroke-opacity="0.5" stroke-width="2" width="10" x="676" y="90"/>
    <rect fill="#bac8d3" fill-opacity="0.5" height="50" pointer-events="none" stroke="#23445d" stroke-opacity="0.5" stroke-width="2" width="10" x="526" y="20"/>
    <rect fill="#bac8d3" fill-opacity="0.5" height="50" pointer-events="none" stroke="#23445d" stroke-opacity="0.5" stroke-width="2" width="10" x="526" y="90"/>
    <rect fill="#bac8d3" fill-opacity="0.5" height="50" pointer-events="none" stroke="#23445d" stroke-opacity="0.5" stroke-width="2" width="10" x="1" y="90"/>
    <rect fill="#bac8d3" fill-opacity="0.5" height="50" pointer-events="none" stroke="#23445d" stroke-opacity="0.5" stroke-width="2" width="10" x="1" y="20"/>
    <rect fill="#bac8d3" fill-opacity="0.5" height="50" pointer-events="none" stroke="#23445d" stroke-opacity="0.5" stroke-width="2" width="10" x="151" y="20"/>
    <rect fill="#bac8d3" fill-opacity="0.5" height="50" pointer-events="none" stroke="#23445d" stroke-opacity="0.5" stroke-width="2" width="10" x="151" y="90"/>
    <rect fill="#bac8d3" fill-opacity="0.5" height="50" pointer-events="none" stroke="#23445d" stroke-opacity="0.5" stroke-width="2" width="10" x="676" y="20"/>
    <path d="M 426 107.2 L 486 107.2 L 486 100 L 526 112 L 486 124 L 486 116.8 L 426 116.8 L 426 112 Z" fill="#1ba1e2" fill-opacity="0.5" pointer-events="none" stroke="#006eaf" stroke-miterlimit="10" stroke-opacity="0.5" transform="translate(476,0)scale(-1,1)translate(-476,0)"/>
    <path d="M 166 37.2 L 226 37.2 L 226 30 L 266 42 L 226 54 L 226 46.8 L 166 46.8 L 166 42 Z" fill="#1ba1e2" fill-opacity="0.5" pointer-events="none" stroke="#006eaf" stroke-miterlimit="10" stroke-opacity="0.5" transform="translate(216,0)scale(-1,1)translate(-216,0)"/>
   </g>
  </svg>
