<!DOCTYPE svg PUBLIC "-//W3C//DTD SVG 1.1//EN" "http://www.w3.org/Graphics/SVG/1.1/DTD/svg11.dtd">
<svg xmlns="http://www.w3.org/2000/svg" style="background-color: rgb(255, 255, 255);" xmlns:xlink="http://www.w3.org/1999/xlink" version="1.1" width="716px" height="240px" viewBox="-0.5 -0.5 716 240"><defs/><g><rect x="281" y="41" width="160" height="160" rx="24" ry="24" fill-opacity="0.5" fill="#b1ddf0" stroke="#10739e" stroke-opacity="0.5" pointer-events="none"/><rect x="301" y="61" width="120" height="120" rx="18" ry="18" fill-opacity="0.8" fill="#ffffff" stroke="#000000" stroke-opacity="0.8" pointer-events="none"/><rect x="541" y="41" width="160" height="160" rx="24" ry="24" fill-opacity="0.5" fill="#bac8d3" stroke="#23445d" stroke-opacity="0.5" pointer-events="none"/><rect x="561" y="61" width="120" height="120" rx="18" ry="18" fill-opacity="0.8" fill="#ffffff" stroke="#000000" stroke-opacity="0.8" pointer-events="none"/><rect x="16" y="41" width="160" height="160" rx="24" ry="24" fill-opacity="0.5" fill="#b0e3e6" stroke="#0e8088" stroke-opacity="0.5" pointer-events="none"/><rect x="36" y="61" width="120" height="120" rx="18" ry="18" fill-opacity="0.8" fill="#ffffff" stroke="#000000" stroke-opacity="0.8" pointer-events="none"/><rect x="431" y="61" width="10" height="50" fill-opacity="0.5" fill="#bac8d3" stroke="#23445d" stroke-opacity="0.5" stroke-width="2" pointer-events="none"/><rect x="431" y="131" width="10" height="50" fill-opacity="0.5" fill="#bac8d3" stroke="#23445d" stroke-opacity="0.5" stroke-width="2" pointer-events="none"/><rect x="281" y="61" width="10" height="50" fill-opacity="0.5" fill="#bac8d3" stroke="#23445d" stroke-opacity="0.5" stroke-width="2" pointer-events="none"/><rect x="281" y="131" width="10" height="50" fill-opacity="0.5" fill="#bac8d3" stroke="#23445d" stroke-opacity="0.5" stroke-width="2" pointer-events="none"/><rect x="691" y="131" width="10" height="50" fill-opacity="0.5" fill="#bac8d3" stroke="#23445d" stroke-opacity="0.5" stroke-width="2" pointer-events="none"/><rect x="541" y="61" width="10" height="50" fill-opacity="0.5" fill="#bac8d3" stroke="#23445d" stroke-opacity="0.5" stroke-width="2" pointer-events="none"/><rect x="541" y="131" width="10" height="50" fill-opacity="0.5" fill="#bac8d3" stroke="#23445d" stroke-opacity="0.5" stroke-width="2" pointer-events="none"/><rect x="16" y="131" width="10" height="50" fill-opacity="0.5" fill="#bac8d3" stroke="#23445d" stroke-opacity="0.5" stroke-width="2" pointer-events="none"/><rect x="16" y="61" width="10" height="50" fill-opacity="0.5" fill="#bac8d3" stroke="#23445d" stroke-opacity="0.5" stroke-width="2" pointer-events="none"/><rect x="166" y="61" width="10" height="50" fill-opacity="0.5" fill="#bac8d3" stroke="#23445d" stroke-opacity="0.5" stroke-width="2" pointer-events="none"/><rect x="166" y="131" width="10" height="50" fill-opacity="0.5" fill="#bac8d3" stroke="#23445d" stroke-opacity="0.5" stroke-width="2" pointer-events="none"/><rect x="691" y="61" width="10" height="50" fill-opacity="0.5" fill="#bac8d3" stroke="#23445d" stroke-opacity="0.5" stroke-width="2" pointer-events="none"/><path d="M 676.2 93.02 L 701.63 76.81" fill="none" stroke="#423a2f" stroke-miterlimit="10" pointer-events="none"/><path d="M 706.06 73.98 L 702.04 80.7 L 701.63 76.81 L 698.27 74.8 Z" fill="#423a2f" stroke="#423a2f" stroke-miterlimit="10" pointer-events="none"/><path d="M 86 91 L 99.13 91" fill="none" stroke="#423a2f" stroke-miterlimit="10" pointer-events="none"/><path d="M 104.38 91 L 97.38 94.5 L 99.13 91 L 97.38 87.5 Z" fill="#423a2f" stroke="#423a2f" stroke-miterlimit="10" pointer-events="none"/><path d="M 56 81 L 61 76 Q 66 71 73.07 78.07 L 79.54 84.54 Q 86 91 78.93 98.07 L 72.46 104.54 Q 66 111 58.93 103.93 L 52.46 97.46 Q 46 91 51 86 Z" fill-opacity="0.5" fill="#647687" stroke="#314354" stroke-opacity="0.5" stroke-miterlimit="10" pointer-events="none"/><path d="M 106.5 151 L 93.37 151" fill="none" stroke="#423a2f" stroke-miterlimit="10" pointer-events="none"/><path d="M 88.12 151 L 95.12 147.5 L 93.37 151 L 95.12 154.5 Z" fill="#423a2f" stroke="#423a2f" stroke-miterlimit="10" pointer-events="none"/><path d="M 124.68 132.82 L 122.63 112.34" fill="none" stroke="#000000" stroke-miterlimit="10" pointer-events="none"/><path d="M 122.11 107.11 L 126.29 113.73 L 122.63 112.34 L 119.33 114.43 Z" fill="#000000" stroke="#000000" stroke-miterlimit="10" pointer-events="none"/><path d="M 66.67 131.33 L 66.43 117.04" fill="none" stroke="#423a2f" stroke-miterlimit="10" pointer-events="none"/><path d="M 66.35 111.79 L 69.96 118.73 L 66.43 117.04 L 62.96 118.85 Z" fill="#423a2f" stroke="#423a2f" stroke-miterlimit="10" pointer-events="none"/><path d="M 57 141 L 62 136 Q 67 131 74.07 138.07 L 80.54 144.54 Q 87 151 79.93 158.07 L 73.46 164.54 Q 67 171 59.93 163.93 L 53.46 157.46 Q 47 151 52 146 Z" fill-opacity="0.5" fill="#76608a" stroke="#432d57" stroke-opacity="0.5" stroke-miterlimit="10" pointer-events="none"/><path d="M 111.59 102.26 L 81.24 136.25" fill="none" stroke="#423a2f" stroke-miterlimit="10" pointer-events="none"/><path d="M 77.74 140.17 L 79.8 132.61 L 81.24 136.25 L 85.02 137.28 Z" fill="#423a2f" stroke="#423a2f" stroke-miterlimit="10" pointer-events="none"/><ellipse cx="122" cy="91" rx="15" ry="15" fill-opacity="0.5" fill="#e51400" stroke="#b20000" stroke-opacity="0.5" pointer-events="none"/><path d="M 116.5 141 L 121.5 136 Q 126.5 131 133.57 138.07 L 140.04 144.54 Q 146.5 151 139.43 158.07 L 132.96 164.54 Q 126.5 171 119.43 163.93 L 112.96 157.46 Q 106.5 151 111.5 146 Z" fill-opacity="0.5" fill="#6d8764" stroke="#3a5431" stroke-opacity="0.5" stroke-miterlimit="10" pointer-events="none"/><path d="M 351 91 L 364.13 91" fill="none" stroke="#423a2f" stroke-miterlimit="10" pointer-events="none"/><path d="M 369.38 91 L 362.38 94.5 L 364.13 91 L 362.38 87.5 Z" fill="#423a2f" stroke="#423a2f" stroke-miterlimit="10" pointer-events="none"/><path d="M 321 81 L 326 76 Q 331 71 338.07 78.07 L 344.54 84.54 Q 351 91 343.93 98.07 L 337.46 104.54 Q 331 111 323.93 103.93 L 317.46 97.46 Q 311 91 316 86 Z" fill-opacity="0.5" fill="#a0522d" stroke="#6d1f00" stroke-opacity="0.5" stroke-miterlimit="10" pointer-events="none"/><path d="M 390.83 110.67 L 391.07 124.96" fill="none" stroke="#423a2f" stroke-miterlimit="10" pointer-events="none"/><path d="M 391.15 130.21 L 387.54 123.27 L 391.07 124.96 L 394.54 123.15 Z" fill="#423a2f" stroke="#423a2f" stroke-miterlimit="10" pointer-events="none"/><path d="M 380.5 81 L 385.5 76 Q 390.5 71 397.57 78.07 L 404.04 84.54 Q 410.5 91 403.43 98.07 L 396.96 104.54 Q 390.5 111 383.43 103.93 L 376.96 97.46 Q 370.5 91 375.5 86 Z" fill-opacity="0.5" fill="#a0522d" stroke="#6d1f00" stroke-opacity="0.5" stroke-miterlimit="10" pointer-events="none"/><path d="M 371.5 151 L 358.37 151" fill="none" stroke="#423a2f" stroke-miterlimit="10" pointer-events="none"/><path d="M 353.12 151 L 360.12 147.5 L 358.37 151 L 360.12 154.5 Z" fill="#423a2f" stroke="#423a2f" stroke-miterlimit="10" pointer-events="none"/><path d="M 381.5 141 L 386.5 136 Q 391.5 131 398.57 138.07 L 405.04 144.54 Q 411.5 151 404.43 158.07 L 397.96 164.54 Q 391.5 171 384.43 163.93 L 377.96 157.46 Q 371.5 151 376.5 146 Z" fill-opacity="0.5" fill="#a0522d" stroke="#6d1f00" stroke-opacity="0.5" stroke-miterlimit="10" pointer-events="none"/><path d="M 331.67 131.33 L 331.43 117.04" fill="none" stroke="#423a2f" stroke-miterlimit="10" pointer-events="none"/><path d="M 331.35 111.79 L 334.96 118.73 L 331.43 117.04 L 327.96 118.85 Z" fill="#423a2f" stroke="#423a2f" stroke-miterlimit="10" pointer-events="none"/><path d="M 322 141 L 327 136 Q 332 131 339.07 138.07 L 345.54 144.54 Q 352 151 344.93 158.07 L 338.46 164.54 Q 332 171 324.93 163.93 L 318.46 157.46 Q 312 151 317 146 Z" fill-opacity="0.5" fill="#a0522d" stroke="#6d1f00" stroke-opacity="0.5" stroke-miterlimit="10" pointer-events="none"/><path d="M 371.87 109.67 L 376.38 105.39" fill="none" stroke="#423a2f" stroke-miterlimit="10" pointer-events="none"/><path d="M 380.19 101.77 L 377.53 109.13 L 376.38 105.39 L 372.7 104.05 Z" fill="#423a2f" stroke="#423a2f" stroke-miterlimit="10" pointer-events="none"/><path d="M 350.94 131.12 L 346.27 136.28" fill="none" stroke="#423a2f" stroke-miterlimit="10" pointer-events="none"/><path d="M 342.75 140.17 L 344.85 132.63 L 346.27 136.28 L 350.04 137.33 Z" fill="#423a2f" stroke="#423a2f" stroke-miterlimit="10" pointer-events="none"/><ellipse cx="361" cy="120" rx="15" ry="15" fill-opacity="0.5" fill="#e51400" stroke="#b20000" stroke-opacity="0.5" pointer-events="none"/><path d="M 593.5 101 Q 593.5 101 642.13 101" fill="none" stroke="#423a2f" stroke-miterlimit="10" pointer-events="none"/><path d="M 647.38 101 L 640.38 104.5 L 642.13 101 L 640.38 97.5 Z" fill="#423a2f" stroke="#423a2f" stroke-miterlimit="10" pointer-events="none"/><ellipse cx="579" cy="101" rx="15" ry="15" fill-opacity="0.5" fill="#f0a30a" stroke="#bd7000" stroke-opacity="0.5" pointer-events="none"/><path d="M 578.94 231 L 626.3 132.81" fill="none" stroke="#423a2f" stroke-miterlimit="10" pointer-events="none"/><path d="M 628.59 128.08 L 628.7 135.91 L 626.3 132.81 L 622.39 132.86 Z" fill="#423a2f" stroke="#423a2f" stroke-miterlimit="10" pointer-events="none"/><ellipse cx="664" cy="101" rx="15" ry="15" fill-opacity="0.5" fill="#fa6800" stroke="#c73500" stroke-opacity="0.5" pointer-events="none"/><path d="M 612.09 131.27 L 593.89 116.08" fill="none" stroke="#423a2f" stroke-miterlimit="10" pointer-events="none"/><path d="M 589.86 112.72 L 597.48 114.51 L 593.89 116.08 L 592.99 119.89 Z" fill="#423a2f" stroke="#423a2f" stroke-miterlimit="10" pointer-events="none"/><ellipse cx="624" cy="141" rx="15" ry="15" fill-opacity="0.5" fill="#e51400" stroke="#b20000" stroke-opacity="0.5" pointer-events="none"/><rect x="557" y="11" width="150" height="220" rx="22.5" ry="22.5" fill="#ffffff" stroke="none" pointer-events="none"/><rect x="1" y="1" width="160" height="220" rx="24" ry="24" fill="#ffffff" stroke="none" pointer-events="none"/><path d="M 441 158.2 L 501 158.2 L 501 151 L 541 163 L 501 175 L 501 167.8 L 441 167.8 L 441 163 Z" fill-opacity="0.5" fill="#1ba1e2" stroke="#006eaf" stroke-opacity="0.5" stroke-miterlimit="10" transform="translate(491,0)scale(-1,1)translate(-491,0)" pointer-events="none"/><path d="M 181 148.2 L 241 148.2 L 241 141 L 281 153 L 241 165 L 241 157.8 L 181 157.8 L 181 153 Z" fill-opacity="0.5" fill="#1ba1e2" stroke="#006eaf" stroke-opacity="0.5" stroke-miterlimit="10" transform="translate(231,0)scale(-1,1)translate(-231,0)" pointer-events="none"/><path d="M 181 78.2 L 241 78.2 L 241 71 L 281 83 L 241 95 L 241 87.8 L 181 87.8 L 181 83 Z" fill-opacity="0.5" fill="#1ba1e2" stroke="#006eaf" stroke-opacity="0.5" stroke-miterlimit="10" transform="translate(0,83)scale(1,-1)translate(0,-83)" pointer-events="none"/><path d="M 441 78.2 L 501 78.2 L 501 71 L 541 83 L 501 95 L 501 87.8 L 441 87.8 L 441 83 Z" fill-opacity="0.5" fill="#1ba1e2" stroke="#006eaf" stroke-opacity="0.5" stroke-miterlimit="10" pointer-events="none"/></g></svg>